<?xml version="1.0" encoding="UTF-8"?>
<svg xmlns="http://www.w3.org/2000/svg"
     xmlns:xlink="http://www.w3.org/1999/xlink"
     version="1.2"
     width="300mm" height="200mm" viewBox="0 0 300 200"
     stroke="none"
     fill="#000000"
     stroke-width="0.3"
     font-size="3.88"
>
<defs>
  <marker id="arrow" markerWidth="15" markerHeight="7" refX="5" refY="3.5" orient="auto" markerUnits="strokeWidth">
    <path d="M0,0 L15,3.5 L0,7 z" stroke="context-stroke" fill="context-stroke"/>
  </marker>
</defs>
<g stroke-width="0.77" fill="#000000" fill-opacity="0.000" stroke="#D3D3D3" id="img-40fdeedd-1">
  <g transform="translate(50.42,108.1)">
    <path fill="none" d="M14.55,40.37 L-14.55,-40.37 " class="primitive"/>
  </g>
  <g transform="translate(45.93,128.23)">
    <path fill="none" d="M17.05,20.76 L-17.05,-20.76 " class="primitive"/>
  </g>
  <g transform="translate(111.47,145.69)">
    <path fill="none" d="M-36.82,6.62 L36.82,-6.62 " class="primitive"/>
  </g>
  <g transform="translate(48.29,149.7)">
    <path fill="none" d="M10.89,2.35 L-10.89,-2.35 " class="primitive"/>
  </g>
  <g transform="translate(29.49,82.63)">
    <path fill="none" d="M3.3,-14.81 L-3.3,14.81 " class="primitive"/>
  </g>
  <g transform="translate(55.2,60.41)">
    <path fill="none" d="M-13.23,1.3 L13.23,-1.3 " class="primitive"/>
  </g>
  <g transform="translate(58.49,90.41)">
    <path fill="none" d="M-20.43,-23.27 L20.43,23.27 " class="primitive"/>
  </g>
  <g transform="translate(50.7,80.54)">
    <path fill="none" d="M-20.78,17.96 L20.78,-17.96 " class="primitive"/>
  </g>
  <g transform="translate(54,110.54)">
    <path fill="none" d="M-21.51,-5.77 L21.51,5.77 " class="primitive"/>
  </g>
  <g transform="translate(27.37,124.22)">
    <path fill="none" d="M-1.77,-16.1 L1.77,16.1 " class="primitive"/>
  </g>
  <g transform="translate(163.11,87.56)">
    <path fill="none" d="M-6.28,44.76 L6.28,-44.76 " class="primitive"/>
  </g>
  <g transform="translate(165.21,151.13)">
    <path fill="none" d="M-5.81,-8.55 L5.81,8.55 " class="primitive"/>
  </g>
  <g transform="translate(190.02,160.5)">
    <path fill="none" d="M-28.26,-19.01 L28.26,19.01 " class="primitive"/>
  </g>
  <g transform="translate(191.65,139.27)">
    <path fill="none" d="M-27.52,-1.23 L27.52,1.23 " class="primitive"/>
  </g>
  <g transform="translate(259.76,63.38)">
    <path fill="none" d="M-13.53,-41.46 L13.53,41.46 " class="primitive"/>
  </g>
  <g transform="translate(207.33,27.05)">
    <path fill="none" d="M29.74,-8.31 L-29.74,8.31 " class="primitive"/>
  </g>
  <g transform="translate(244.37,37.82)">
    <path fill="none" d="M0.11,-15.77 L-0.11,15.77 " class="primitive"/>
  </g>
  <g transform="translate(236.24,58.87)">
    <path fill="none" d="M7.23,-36.87 L-7.23,36.87 " class="primitive"/>
  </g>
  <g transform="translate(259.61,84.53)">
    <path fill="none" d="M12.38,20.57 L-12.38,-20.57 " class="primitive"/>
  </g>
  <g transform="translate(249.48,146.71)">
    <path fill="none" d="M22.12,-31.74 L-22.12,31.74 " class="primitive"/>
  </g>
  <g transform="translate(251.11,125.48)">
    <path fill="none" d="M18.09,-11.65 L-18.09,11.65 " class="primitive"/>
  </g>
  <g transform="translate(207.19,48.21)">
    <path fill="none" d="M-29.64,-8.62 L29.64,8.62 " class="primitive"/>
  </g>
  <g transform="translate(123.28,47.88)">
    <path fill="none" d="M39.22,-8.74 L-39.22,8.74 " class="primitive"/>
  </g>
  <g transform="translate(235.72,99.92)">
    <path fill="none" d="M7.4,-35.62 L-7.4,35.62 " class="primitive"/>
  </g>
  <g transform="translate(236.1,80.02)">
    <path fill="none" d="M6.12,-15.84 L-6.12,15.84 " class="primitive"/>
  </g>
  <g transform="translate(79.7,88.32)">
    <path fill="none" d="M-2.71,-24.63 L2.71,24.63 " class="primitive"/>
  </g>
  <g transform="translate(53.07,102.01)">
    <path fill="none" d="M20.63,-38.62 L-20.63,38.62 " class="primitive"/>
  </g>
  <g transform="translate(199.15,173.96)">
    <path fill="none" d="M-17.79,-6.73 L17.79,6.73 " class="primitive"/>
  </g>
  <g transform="translate(200.78,152.72)">
    <path fill="none" d="M-19.75,8.85 L19.75,-8.85 " class="primitive"/>
  </g>
  <g transform="translate(128.67,141.45)">
    <path fill="none" d="M39.25,19.87 L-39.25,-19.87 " class="primitive"/>
  </g>
  <g transform="translate(201.16,132.83)">
    <path fill="none" d="M-22.86,27.06 L22.86,-27.06 " class="primitive"/>
  </g>
  <g transform="translate(225.97,142.2)">
    <path fill="none" d="M-1.74,35.75 L1.74,-35.75 " class="primitive"/>
  </g>
  <g transform="translate(56.36,132.01)">
    <path fill="none" d="M20.24,-10.4 L-20.24,10.4 " class="primitive"/>
  </g>
</g>
<g stroke-width="0.77" stroke="#D3D3D3" id="img-40fdeedd-2">
</g>
<g font-size="4" stroke="#000000" stroke-opacity="0.000" fill="#000000" id="img-40fdeedd-3">
</g>
<g stroke-width="0" stroke="#000000" stroke-opacity="0.000" fill="#40E0D0" id="img-40fdeedd-4">
  <g transform="translate(66.86,153.71)">
    <circle cx="0" cy="0" r="7.75" class="primitive"/>
  </g>
  <g transform="translate(33.98,62.5)">
    <circle cx="0" cy="0" r="7.75" class="primitive"/>
  </g>
  <g transform="translate(25,102.76)">
    <circle cx="0" cy="0" r="7.75" class="primitive"/>
  </g>
  <g transform="translate(156.08,137.67)">
    <circle cx="0" cy="0" r="7.75" class="primitive"/>
  </g>
  <g transform="translate(244.52,16.67)">
    <circle cx="0" cy="0" r="7.75" class="primitive"/>
  </g>
  <g transform="translate(275,110.09)">
    <circle cx="0" cy="0" r="7.75" class="primitive"/>
  </g>
  <g transform="translate(170.15,37.44)">
    <circle cx="0" cy="0" r="7.75" class="primitive"/>
  </g>
  <g transform="translate(244.23,58.97)">
    <circle cx="0" cy="0" r="7.75" class="primitive"/>
  </g>
  <g transform="translate(76.41,58.32)">
    <circle cx="0" cy="0" r="7.75" class="primitive"/>
  </g>
  <g transform="translate(174.34,164.58)">
    <circle cx="0" cy="0" r="7.75" class="primitive"/>
  </g>
  <g transform="translate(223.96,183.33)">
    <circle cx="0" cy="0" r="7.75" class="primitive"/>
  </g>
  <g transform="translate(227.22,140.86)">
    <circle cx="0" cy="0" r="7.75" class="primitive"/>
  </g>
  <g transform="translate(83,118.32)">
    <circle cx="0" cy="0" r="7.75" class="primitive"/>
  </g>
  <g transform="translate(29.73,145.69)">
    <circle cx="0" cy="0" r="7.75" class="primitive"/>
  </g>
  <g transform="translate(227.97,101.08)">
    <circle cx="0" cy="0" r="7.75" class="primitive"/>
  </g>
</g>
<g font-size="4" stroke="#000000" stroke-opacity="0.000" fill="#000000" id="img-40fdeedd-5">
  <g transform="translate(66.86,153.71)">
    <g class="primitive">
      <text text-anchor="middle" dy="0.35em">jqt</text>
    </g>
  </g>
  <g transform="translate(33.98,62.5)">
    <g class="primitive">
      <text text-anchor="middle" dy="0.35em">rhn</text>
    </g>
  </g>
  <g transform="translate(25,102.76)">
    <g class="primitive">
      <text text-anchor="middle" dy="0.35em">xhk</text>
    </g>
  </g>
  <g transform="translate(156.08,137.67)">
    <g class="primitive">
      <text text-anchor="middle" dy="0.35em">nvd</text>
    </g>
  </g>
  <g transform="translate(244.52,16.67)">
    <g class="primitive">
      <text text-anchor="middle" dy="0.35em">rsh</text>
    </g>
  </g>
  <g transform="translate(275,110.09)">
    <g class="primitive">
      <text text-anchor="middle" dy="0.35em">frs</text>
    </g>
  </g>
  <g transform="translate(170.15,37.44)">
    <g class="primitive">
      <text text-anchor="middle" dy="0.35em">pzl</text>
    </g>
  </g>
  <g transform="translate(244.23,58.97)">
    <g class="primitive">
      <text text-anchor="middle" dy="0.35em">lsr</text>
    </g>
  </g>
  <g transform="translate(76.41,58.32)">
    <g class="primitive">
      <text text-anchor="middle" dy="0.35em">hfx</text>
    </g>
  </g>
  <g transform="translate(174.34,164.58)">
    <g class="primitive">
      <text text-anchor="middle" dy="0.35em">cmg</text>
    </g>
  </g>
  <g transform="translate(223.96,183.33)">
    <g class="primitive">
      <text text-anchor="middle" dy="0.35em">qnr</text>
    </g>
  </g>
  <g transform="translate(227.22,140.86)">
    <g class="primitive">
      <text text-anchor="middle" dy="0.35em">lhk</text>
    </g>
  </g>
  <g transform="translate(83,118.32)">
    <g class="primitive">
      <text text-anchor="middle" dy="0.35em">bvb</text>
    </g>
  </g>
  <g transform="translate(29.73,145.69)">
    <g class="primitive">
      <text text-anchor="middle" dy="0.35em">ntq</text>
    </g>
  </g>
  <g transform="translate(227.97,101.08)">
    <g class="primitive">
      <text text-anchor="middle" dy="0.35em">rzs</text>
    </g>
  </g>
</g>
</svg>
